<svg xmlns="http://www.w3.org/2000/svg" height="124" viewBox="0 0 124 124" width="124"><div xmlns="" id="in-page-channel-node-id" data-channel-name="in_page_channel_sbtroo"/>
 <style>
    path {
      fill: #212121;
    }
    @media (prefers-color-scheme: dark) {
      path {
        fill: white;
      }
    }
  </style>
    <path d="m64.2528132 106c.7637441-.039985 4.4392802 8.974783 4.7201315 12.036546.2748757 2.99662-1.6038071 2.439116-2.9554195-.828422l-.0873739-.216934c-1.3562866-3.458553-2.4410823-10.950938-1.6773381-10.99119zm-47.2574463-11.8839736c.2258835.736483-7.86918282 6.5731336-10.85404724 7.6098646-2.98486442 1.036732-2.8169153-1.047593.30189596-3.2342179l.40157721-.2711436c3.29396677-2.1481975 9.93391027-4.8109255 10.15057407-4.1045031zm74.9314764-57.8376262c-5.0217848 16.983361-22.8661165 51.1294677-39.2733326 56.5964325-6.5748125 1.1365966-21.6535107-5.4669648-21.6535107-19.8348316s23.3178636-39.3931116 51.7906198-46.9299418c4.1303048-.800291 9.9274125 2.7815319 9.1362235 10.1683409zm12.9955297 50.7205332c2.382381 1.859115.544312 2.7111387-2.873002 1.2895836-3.4173143-1.4215552-9.5250299-5.7113736-9.0198909-6.2368616.5051391-.5254881 9.5105119 3.088163 11.8928929 4.947278zm-20.4640784-58.9989334c-8.1449824 1.3700286-48.7611398 20.0978912-51.4582946 48 26.6979239-42.6313824 56.3921923-48 51.4582946-48zm33.6999894 20.000649c3.000845.0495248 2.174601 2.0114932-1.318931 3.0297665-3.493531 1.0182734-10.876551 1.3080706-10.839212.5140154.03734-.7940552 9.157299-3.5933068 12.158143-3.5437819zm-106.2076548-3.289166c3.4173141 1.4215552 9.5250297 5.7113736 9.0198907 6.2368616-.5051391.5254881-9.5105117-3.088163-11.892893-4.947278s-.54431178-2.7111387 2.8730023-1.2895836zm65.0493708-37.91893845c0 3.82500105-1.6997329 11.43995725-2.4145921 11.20200665-.7148591-.2379505-.8435797-10.25870543 0-13.31171986s2.4145921-1.71528781 2.4145921 2.10971321z" fill-rule="evenodd"/>
</svg>