<svg xmlns="http://www.w3.org/2000/svg" viewBox="0 0 436 218" aria-labelledby="logopacket-title" role="img">
  <title id="logopacket-title">logopacket</title>
  <g fill="none" fill-rule="evenodd">
    <path d="M88.596 156.329c2.572 0 4.848-.496 6.83-1.486 1.98-.99 3.527-2.381 4.64-4.171 1.112-1.79 1.668-3.867 1.668-6.23v-24.4a.603.603 0 00-.183-.442.603.603 0 00-.443-.183h-6.047a.603.603 0 00-.444.183.603.603 0 00-.182.443v24.399c0 1.668-.547 3.015-1.642 4.04-1.095 1.026-2.494 1.538-4.197 1.538-1.773 0-3.172-.512-4.197-1.538s-1.538-2.372-1.538-4.04v-3.285c0-.173-.06-.321-.182-.443s-.27-.182-.444-.182h-6.1a.603.603 0 00-.443.182.603.603 0 00-.182.443v3.285c0 2.363.539 4.44 1.616 6.23 1.078 1.79 2.598 3.18 4.562 4.17 1.964.991 4.266 1.487 6.908 1.487zm32.74 0c2.677 0 5.032-.522 7.065-1.564 2.033-1.043 3.615-2.512 4.744-4.406s1.695-4.075 1.695-6.543v-23.773a.603.603 0 00-.183-.443.603.603 0 00-.443-.183h-6.1a.603.603 0 00-.443.183.603.603 0 00-.182.443v23.825c0 1.843-.565 3.328-1.695 4.458s-2.615 1.694-4.457 1.694-3.328-.564-4.458-1.694-1.694-2.615-1.694-4.458v-23.825a.603.603 0 00-.183-.443.603.603 0 00-.443-.183h-6.1a.603.603 0 00-.443.183.603.603 0 00-.182.443v23.773c0 2.468.565 4.649 1.694 6.543s2.711 3.363 4.744 4.406c2.034 1.042 4.388 1.564 7.065 1.564zm32.064 0c4.101 0 7.35-.947 9.749-2.842 2.398-1.894 3.597-4.475 3.597-7.742 0-2.19-.565-3.97-1.694-5.344s-2.398-2.406-3.806-3.102c-1.408-.695-3.345-1.494-5.813-2.398-2.224-.8-3.867-1.434-4.927-1.903-1.06-.469-1.86-.999-2.398-1.59-.539-.59-.808-1.32-.808-2.19 0-1.216.46-2.172 1.381-2.867.922-.695 2.199-1.043 3.832-1.043 2.086 0 3.728.513 4.927 1.538 1.2 1.026 1.799 2.268 1.799 3.728v.417a.6.6 0 00.182.443c.122.122.27.183.443.183h5.996a.602.602 0 00.443-.183.603.603 0 00.183-.443v-.782c0-2.224-.583-4.18-1.747-5.865-1.164-1.686-2.78-2.998-4.848-3.936-2.068-.939-4.423-1.408-7.065-1.408-2.502 0-4.71.417-6.62 1.251-1.913.834-3.407 2.034-4.485 3.598-1.077 1.564-1.616 3.388-1.616 5.474 0 2.12.548 3.901 1.643 5.344a11.884 11.884 0 004.066 3.414c1.616.835 3.589 1.651 5.917 2.45 2.086.765 3.606 1.365 4.562 1.8.956.434 1.712.938 2.268 1.511s.834 1.278.834 2.112c0 1.147-.452 2.111-1.355 2.893-.904.782-2.277 1.173-4.119 1.173-2.19 0-3.927-.478-5.213-1.433-1.286-.956-1.93-2.13-1.93-3.52v-.782a.603.603 0 00-.182-.443.603.603 0 00-.443-.182h-5.943a.603.603 0 00-.444.182.603.603 0 00-.182.443v1.147c0 2.19.565 4.11 1.694 5.761 1.13 1.651 2.737 2.92 4.823 3.806 2.085.887 4.518 1.33 7.299 1.33zm33.47-.417a.605.605 0 00.444-.183.603.603 0 00.182-.443v-29.248c0-.174.087-.26.26-.26h9.333a.602.602 0 00.443-.183.603.603 0 00.182-.443v-5.11a.603.603 0 00-.182-.442.603.603 0 00-.443-.183h-26.276a.603.603 0 00-.443.183.603.603 0 00-.183.443v5.109c0 .174.061.321.183.443a.6.6 0 00.443.183h9.071c.174 0 .261.086.261.26v29.248c0 .174.06.321.182.443s.27.183.444.183zm-81.07 41.932c4.102 0 7.351-.948 9.75-2.842s3.597-4.475 3.597-7.742c0-2.19-.565-3.97-1.694-5.344s-2.399-2.407-3.806-3.102c-1.408-.695-3.346-1.494-5.813-2.398-2.225-.8-3.867-1.434-4.927-1.903s-1.86-1-2.398-1.59c-.539-.59-.808-1.32-.808-2.19 0-1.216.46-2.172 1.381-2.867.921-.695 2.199-1.043 3.832-1.043 2.086 0 3.728.513 4.927 1.538 1.199 1.026 1.799 2.268 1.799 3.728v.417c0 .174.06.321.182.443s.27.183.443.183h5.996a.604.604 0 00.443-.183.603.603 0 00.182-.443v-.782c0-2.224-.582-4.18-1.746-5.865s-2.78-2.998-4.849-3.936c-2.068-.939-4.423-1.408-7.064-1.408-2.503 0-4.71.417-6.621 1.251-1.912.834-3.406 2.033-4.484 3.597-1.077 1.565-1.616 3.39-1.616 5.475 0 2.12.547 3.901 1.642 5.343s2.45 2.581 4.067 3.415c1.616.834 3.588 1.651 5.917 2.45 2.086.765 3.606 1.365 4.562 1.8.956.434 1.712.938 2.268 1.511.556.574.834 1.278.834 2.112 0 1.147-.452 2.111-1.356 2.893-.903.782-2.276 1.173-4.118 1.173-2.19 0-3.928-.478-5.214-1.433-1.286-.956-1.929-2.13-1.929-3.52v-.782c0-.173-.06-.321-.182-.443s-.27-.182-.443-.182H92.61c-.173 0-.321.06-.443.182s-.182.27-.182.443v1.147c0 2.19.564 4.11 1.694 5.761 1.13 1.651 2.737 2.92 4.823 3.806 2.085.886 4.518 1.33 7.298 1.33zm31.49.156c2.746 0 5.153-.547 7.22-1.642 2.069-1.095 3.676-2.65 4.823-4.666 1.147-2.016 1.72-4.328 1.72-6.934V173.6c0-2.572-.573-4.849-1.72-6.83-1.147-1.981-2.754-3.519-4.822-4.614-2.068-1.095-4.475-1.642-7.221-1.642-2.711 0-5.1.547-7.169 1.642-2.068 1.095-3.675 2.633-4.822 4.614-1.147 1.981-1.72 4.258-1.72 6.83v11.157c0 2.606.573 4.91 1.72 6.908 1.147 1.998 2.754 3.553 4.822 4.666 2.068 1.112 4.458 1.668 7.169 1.668zm0-6.308c-1.912 0-3.45-.609-4.614-1.825-1.164-1.217-1.746-2.833-1.746-4.849v-11.47c0-2.015.582-3.64 1.746-4.874 1.164-1.234 2.702-1.85 4.614-1.85 1.946 0 3.502.616 4.666 1.85 1.164 1.234 1.747 2.859 1.747 4.875v11.47c0 2.015-.591 3.631-1.773 4.848s-2.728 1.825-4.64 1.825zm33.262 5.735c.382 0 .608-.192.678-.574l4.953-22.522c.034-.14.087-.209.156-.209.07 0 .122.07.157.209l5.317 22.574c.105.348.33.522.678.522h6.204c.382 0 .626-.174.73-.522l8.55-35.295c.104-.452-.087-.678-.573-.678h-6.152c-.348 0-.574.191-.678.573l-4.796 21.167c-.035.14-.087.2-.157.183-.07-.018-.121-.078-.156-.183l-5.214-21.219c-.104-.347-.347-.521-.73-.521h-6.308c-.348 0-.573.191-.678.573l-4.796 21.167c-.035.14-.087.209-.157.209s-.121-.07-.156-.209l-4.953-21.219c-.104-.347-.33-.521-.678-.521h-6.464c-.383 0-.574.156-.574.47l.052.208 9.228 35.295c.105.348.348.522.73.522z" fill="#000" fill-opacity=".87" fill-rule="nonzero"/><path d="M10 10h159.002L208 42.033V109H10z" fill="#00c5b0"/><path d="M172.208 0L218 38.002V218H0V0zm-3.609 10H10v198h198V42.699z" fill="#212121" fill-rule="nonzero"/><path d="M228 109.364h208v99.773H228z" fill="#00c5b0"/><path d="M284.472 25.212c-3.042 10.188-13.853 30.67-23.793 33.95-3.983.681-13.118-3.28-13.118-11.898s14.126-23.63 31.376-28.15c2.502-.481 6.014 1.668 5.535 6.098zm-4.322-5.126c-4.885.834-29.24 12.234-30.857 29.219 16.01-25.95 33.815-29.219 30.857-29.219zm100.712 13.582c-3.042 10.187-13.853 30.67-23.793 33.949-3.983.681-13.118-3.28-13.118-11.898s14.127-23.63 31.376-28.15c2.503-.48 6.015 1.668 5.535 6.099zm-4.322-5.126c-4.884.834-29.24 12.234-30.857 29.218 16.01-25.95 33.815-29.218 30.857-29.218zm49.98 33.874c-3.042 10.187-13.852 30.67-23.792 33.949-3.983.681-13.119-3.28-13.119-11.898s14.127-23.63 31.377-28.15c2.502-.48 6.014 1.668 5.535 6.099zm-4.322-5.126c-4.884.834-29.239 12.234-30.856 29.218 16.009-25.95 33.815-29.218 30.856-29.218zM407.92 163.88c-3.043 10.186-13.854 30.669-23.794 33.948-3.983.682-13.118-3.28-13.118-11.898s14.126-23.63 31.376-28.15c2.502-.48 6.015 1.668 5.535 6.1zm-4.323-5.127c-4.884.834-29.24 12.234-30.857 29.218 16.01-25.95 33.815-29.218 30.857-29.218zm-34.572-33.768c-3.042 10.187-13.853 30.67-23.793 33.949-3.983.682-13.119-3.28-13.119-11.898s14.127-23.63 31.377-28.15c2.502-.48 6.014 1.668 5.535 6.099zm-4.323-5.126c-4.884.834-29.239 12.234-30.856 29.218 16.009-25.95 33.815-29.218 30.856-29.218zm-76.848 38.947c-3.042 10.187-13.853 30.67-23.793 33.949-3.983.682-13.118-3.28-13.118-11.898s14.126-23.63 31.376-28.15c2.502-.48 6.015 1.668 5.535 6.099zm-4.322-5.126c-4.884.834-29.24 12.234-30.857 29.218 16.01-25.95 33.815-29.218 30.857-29.218zm33.07-55.752c-3.042 10.187-13.853 30.67-23.793 33.949-3.983.682-13.118-3.28-13.118-11.898s14.126-23.63 31.376-28.15c2.502-.48 6.014 1.668 5.535 6.099zm-4.322-5.126c-4.884.834-29.24 12.234-30.857 29.218 16.01-25.95 33.815-29.218 30.857-29.218z" fill="#212121"/></g>

</svg>
