<svg xmlns="http://www.w3.org/2000/svg"><div xmlns="" id="in-page-channel-node-id" data-channel-name="in_page_channel_vFrcRc"/><symbol fill="none" id="aus" viewBox="0 0 169 118"><title>aus</title><path stroke="#fff" stroke-width="8.399" d="M5.041 4.2h159.597v109.597H5.041z"/><path d="M57.174 80.998c-.41 0-.672-.187-.784-.56l-1.456-4.984c-.075-.149-.168-.223-.28-.223H41.887c-.112 0-.205.074-.28.223l-1.456 4.984c-.112.373-.373.56-.784.56H30.8c-.224 0-.392-.056-.504-.168-.112-.15-.13-.355-.056-.616l11.983-37.853c.112-.373.355-.56.728-.56h10.583c.373 0 .616.186.728.56l12.04 37.853a.623.623 0 01.055.28c0 .336-.205.504-.616.504h-8.567zM43.847 67.727c-.038.224.037.336.224.336h8.343c.224 0 .299-.112.224-.336l-4.256-14.391c-.037-.15-.093-.205-.168-.168-.074 0-.13.056-.167.168l-4.2 14.391zM87.06 81.446c-2.95 0-5.563-.56-7.84-1.68-2.24-1.157-3.994-2.781-5.263-4.872-1.232-2.09-1.848-4.498-1.848-7.223V42.473c0-.187.056-.336.168-.448a.696.696 0 01.504-.224h7.951c.187 0 .336.075.448.224a.53.53 0 01.224.448V67.67c0 1.754.504 3.173 1.512 4.256 1.045 1.045 2.427 1.568 4.144 1.568 1.68 0 3.023-.523 4.031-1.568 1.046-1.083 1.568-2.502 1.568-4.256V42.473c0-.187.056-.336.168-.448a.696.696 0 01.504-.224h7.952c.186 0 .336.075.448.224a.533.533 0 01.224.448V67.67c0 2.725-.616 5.133-1.848 7.223-1.232 2.091-2.987 3.715-5.264 4.872-2.24 1.12-4.834 1.68-7.783 1.68zm37.184 0c-3.099 0-5.805-.485-8.12-1.456-2.277-1.008-4.05-2.426-5.319-4.256-1.232-1.866-1.848-4.013-1.848-6.44v-1.063c0-.187.056-.336.168-.448a.695.695 0 01.504-.224h7.783c.187 0 .336.075.448.224a.533.533 0 01.224.448v.672c0 1.232.616 2.314 1.848 3.248 1.232.896 2.893 1.344 4.984 1.344 1.642 0 2.855-.355 3.639-1.064.784-.71 1.176-1.53 1.176-2.464 0-.747-.242-1.344-.728-1.792-.448-.485-1.064-.877-1.848-1.176-.783-.336-1.997-.784-3.639-1.344a2.372 2.372 0 00-.672-.224c-.224-.075-.429-.15-.616-.224-2.427-.784-4.536-1.624-6.328-2.52a14.093 14.093 0 01-4.591-3.807c-1.27-1.643-1.904-3.659-1.904-6.048 0-2.314.597-4.33 1.792-6.047 1.232-1.755 2.93-3.099 5.095-4.032 2.165-.934 4.611-1.4 7.336-1.4 2.874 0 5.45.523 7.727 1.568 2.315 1.045 4.125 2.52 5.432 4.423 1.306 1.904 1.96 4.088 1.96 6.552v.784a.698.698 0 01-.224.504.607.607 0 01-.448.168h-7.784a.822.822 0 01-.504-.168.819.819 0 01-.168-.504v-.392c0-1.307-.578-2.464-1.736-3.472-1.157-1.008-2.706-1.512-4.647-1.512-1.456 0-2.595.299-3.416.896-.821.598-1.232 1.438-1.232 2.52 0 .821.261 1.512.784 2.072.523.523 1.325 1.026 2.408 1.512 1.12.448 2.818 1.045 5.096 1.792 2.613.896 4.647 1.68 6.103 2.352 1.456.672 2.819 1.773 4.088 3.303 1.306 1.494 1.96 3.472 1.96 5.936 0 2.426-.616 4.517-1.848 6.271-1.232 1.755-2.968 3.118-5.208 4.088-2.202.933-4.778 1.4-7.727 1.4z" fill="#fff"/></symbol><symbol id="btn-close" viewBox="0 0 18 18"><title>btn-close</title><path d="M17.132 2.99L11.122 9l6.01 6.01-2.122 2.122L9 11.122l-6.01 6.01L.868 15.01 6.878 9 .869 2.99 2.99.868 9 6.878l6.01-6.01z" fill="currentColor" fill-rule="evenodd"/></symbol><symbol id="btn-play" viewBox="0 0 95 95"><title>btn-play</title><path d="M47.5 0C73.734 0 95 21.266 95 47.5S73.734 95 47.5 95 0 73.734 0 47.5 21.266 0 47.5 0zm0 8C25.685 8 8 25.685 8 47.5S25.685 87 47.5 87 87 69.315 87 47.5 69.315 8 47.5 8zM38 28l25 18.442L38 65z" fill="currentColor" fill-rule="evenodd"/></symbol><symbol fill="none" id="fusion" viewBox="0 0 57 23"><title>fusion</title><path d="M38.218 10.019c.789 0 .682.816.682 2.025 0 1.156.107 1.946-.682 1.946-.797 0-.765-.79-.765-1.946 0-1.209-.032-2.025.765-2.025zm-2.555.423v3.29c0 1.316 1.257 2.163 2.555 2.163 1.3 0 2.556-.847 2.556-2.164v-3.55c0-1.277-1.3-1.99-2.556-1.99-1.32 0-2.555.91-2.555 2.25zm-4.306-2.067c.483 0 .804.518.804 1.037v5.191c0 .523-.282 1.041-.763 1.041-.434 0-.765-.4-.765-.866v-5.54c0-.452.3-.863.724-.863zm15.11.177c-.886 0-2.047-.878-2.047.86v5.185c0 .518.297 1.037.81 1.037.534 0 .895-.5.895-1.037v-3.291c0-.767.212-1.21.768-1.21.5 0 .767.311.767 1.039v3.29c0 .59.352 1.208.937 1.208.566 0 .853-.637.853-1.209v-3.982c0-1.06-.33-2.164-1.62-2.164-.533 0-.831.274-1.363.274zm-21.796-.36c.956 0 2.134.237 2.134 1.168a.755.755 0 01-.756.736c-.378 0-.556-.339-.934-.339-.563 0-.874.017-.874.587 0 .748 1.297.804 1.941 1.204.822.507 1.068 1.248 1.068 1.976 0 1.658-1.277 2.282-2.622 2.282-.934 0-2.17-.337-2.17-1.244 0-.421.447-.736.88-.736.453 0 .7.415 1.156.415.333 0 .699-.316.699-.64 0-.866-1.199-.879-1.945-1.332-.732-.453-.977-1.136-.977-1.993 0-1.242 1.122-2.085 2.4-2.085zM7.668 7.204c-.124 1.24-.612.816-.612 1.602 0 .95.633.501.633 2.337v3.546c0 .488.312.954.764.954.533 0 .763-.637.763-1.211V10.97c0-2.21 1.091-.948 1.091-2.12 0-.946-1.11-.046-1.11-1.688 0-1.716 1.32-.613 1.32-1.645 0-.499-.232-.605-1.219-.605-1.096 0-1.51 1.121-1.63 2.292zm7.667 8.44c-1.249 0-1.62-.692-1.62-2.165V9.576c0-.572.288-1.212.851-1.212.588 0 .94.616.94 1.212v3.289c0 .727.266 1.039.768 1.039.553 0 .768-.445.768-1.212V9.4c0-.54.361-1.037.893-1.037.513 0 .81.519.81 1.037v5.107c0 1.741-1.16.961-2.046.961-.305 0-.626.175-1.364.175zm40.24 5.82V1.533h-4.103V0H57v23h-5.527v-1.536h4.103zM5.595 1.533V0H0v23h5.596v-1.536H1.424V1.534h4.172z" fill="#fff"/></symbol><symbol id="less" viewBox="0 0 56 56"><title>Less</title><path fill="currentColor" d="M1.5 48h53.444L28.222 9z" fill-rule="evenodd"/></symbol><symbol id="logo" viewBox="0 0 218 218"><title>logo</title><g fill="none" fill-rule="evenodd"><path d="M10 109h198v99H10z" fill="#fff"/><g fill-rule="nonzero"><path d="M88.596 156.329c2.572 0 4.848-.496 6.83-1.486 1.98-.99 3.527-2.381 4.64-4.171 1.112-1.79 1.668-3.867 1.668-6.23v-24.4a.603.603 0 00-.183-.442.603.603 0 00-.443-.183h-6.047a.603.603 0 00-.444.183.603.603 0 00-.182.443v24.399c0 1.668-.547 3.015-1.642 4.04-1.095 1.026-2.494 1.538-4.197 1.538-1.773 0-3.172-.512-4.197-1.538s-1.538-2.372-1.538-4.04v-3.285c0-.173-.06-.321-.182-.443s-.27-.182-.444-.182h-6.1a.603.603 0 00-.443.182.603.603 0 00-.182.443v3.285c0 2.363.539 4.44 1.616 6.23 1.078 1.79 2.598 3.18 4.562 4.17 1.964.991 4.266 1.487 6.908 1.487zm32.74 0c2.677 0 5.032-.522 7.065-1.564 2.033-1.043 3.615-2.512 4.744-4.406s1.695-4.075 1.695-6.543v-23.773a.603.603 0 00-.183-.443.603.603 0 00-.443-.183h-6.1a.603.603 0 00-.443.183.603.603 0 00-.182.443v23.825c0 1.843-.565 3.328-1.695 4.458s-2.615 1.694-4.457 1.694-3.328-.564-4.458-1.694-1.694-2.615-1.694-4.458v-23.825a.603.603 0 00-.183-.443.603.603 0 00-.443-.183h-6.1a.603.603 0 00-.443.183.603.603 0 00-.182.443v23.773c0 2.468.565 4.649 1.694 6.543s2.711 3.363 4.744 4.406c2.034 1.042 4.388 1.564 7.065 1.564zm32.064 0c4.101 0 7.35-.947 9.749-2.842 2.398-1.894 3.597-4.475 3.597-7.742 0-2.19-.565-3.97-1.694-5.344s-2.398-2.406-3.806-3.102c-1.408-.695-3.345-1.494-5.813-2.398-2.224-.8-3.867-1.434-4.927-1.903-1.06-.469-1.86-.999-2.398-1.59-.539-.59-.808-1.32-.808-2.19 0-1.216.46-2.172 1.381-2.867.922-.695 2.199-1.043 3.832-1.043 2.086 0 3.728.513 4.927 1.538 1.2 1.026 1.799 2.268 1.799 3.728v.417a.6.6 0 00.182.443c.122.122.27.183.443.183h5.996a.602.602 0 00.443-.183.603.603 0 00.183-.443v-.782c0-2.224-.583-4.18-1.747-5.865-1.164-1.686-2.78-2.998-4.848-3.936-2.068-.939-4.423-1.408-7.065-1.408-2.502 0-4.71.417-6.62 1.251-1.913.834-3.407 2.034-4.485 3.598-1.077 1.564-1.616 3.388-1.616 5.474 0 2.12.548 3.901 1.643 5.344a11.884 11.884 0 004.066 3.414c1.616.835 3.589 1.651 5.917 2.45 2.086.765 3.606 1.365 4.562 1.8.956.434 1.712.938 2.268 1.511s.834 1.278.834 2.112c0 1.147-.452 2.111-1.355 2.893-.904.782-2.277 1.173-4.119 1.173-2.19 0-3.927-.478-5.213-1.433-1.286-.956-1.93-2.13-1.93-3.52v-.782a.603.603 0 00-.182-.443.603.603 0 00-.443-.182h-5.943a.603.603 0 00-.444.182.603.603 0 00-.182.443v1.147c0 2.19.565 4.11 1.694 5.761 1.13 1.651 2.737 2.92 4.823 3.806 2.085.887 4.518 1.33 7.299 1.33zm33.47-.417a.605.605 0 00.444-.183.603.603 0 00.182-.443v-29.248c0-.174.087-.26.26-.26h9.333a.602.602 0 00.443-.183.603.603 0 00.182-.443v-5.11a.603.603 0 00-.182-.442.603.603 0 00-.443-.183h-26.276a.603.603 0 00-.443.183.603.603 0 00-.183.443v5.109c0 .174.061.321.183.443a.6.6 0 00.443.183h9.071c.174 0 .261.086.261.26v29.248c0 .174.06.321.182.443s.27.183.444.183zm-81.07 41.932c4.102 0 7.351-.948 9.75-2.842s3.597-4.475 3.597-7.742c0-2.19-.565-3.97-1.694-5.344s-2.399-2.407-3.806-3.102c-1.408-.695-3.346-1.494-5.813-2.398-2.225-.8-3.867-1.434-4.927-1.903s-1.86-1-2.398-1.59c-.539-.59-.808-1.32-.808-2.19 0-1.216.46-2.172 1.381-2.867.921-.695 2.199-1.043 3.832-1.043 2.086 0 3.728.513 4.927 1.538 1.199 1.026 1.799 2.268 1.799 3.728v.417c0 .174.06.321.182.443s.27.183.443.183h5.996a.604.604 0 00.443-.183.603.603 0 00.182-.443v-.782c0-2.224-.582-4.18-1.746-5.865s-2.78-2.998-4.849-3.936c-2.068-.939-4.423-1.408-7.064-1.408-2.503 0-4.71.417-6.621 1.251-1.912.834-3.406 2.033-4.484 3.597-1.077 1.565-1.616 3.39-1.616 5.475 0 2.12.547 3.901 1.642 5.343s2.45 2.581 4.067 3.415c1.616.834 3.588 1.651 5.917 2.45 2.086.765 3.606 1.365 4.562 1.8.956.434 1.712.938 2.268 1.511.556.574.834 1.278.834 2.112 0 1.147-.452 2.111-1.356 2.893-.903.782-2.276 1.173-4.118 1.173-2.19 0-3.928-.478-5.214-1.433-1.286-.956-1.929-2.13-1.929-3.52v-.782c0-.173-.06-.321-.182-.443s-.27-.182-.443-.182H92.61c-.173 0-.321.06-.443.182s-.182.27-.182.443v1.147c0 2.19.564 4.11 1.694 5.761 1.13 1.651 2.737 2.92 4.823 3.806 2.085.886 4.518 1.33 7.298 1.33zm31.49.156c2.746 0 5.153-.547 7.22-1.642 2.069-1.095 3.676-2.65 4.823-4.666 1.147-2.016 1.72-4.328 1.72-6.934V173.6c0-2.572-.573-4.849-1.72-6.83-1.147-1.981-2.754-3.519-4.822-4.614-2.068-1.095-4.475-1.642-7.221-1.642-2.711 0-5.1.547-7.169 1.642-2.068 1.095-3.675 2.633-4.822 4.614-1.147 1.981-1.72 4.258-1.72 6.83v11.157c0 2.606.573 4.91 1.72 6.908 1.147 1.998 2.754 3.553 4.822 4.666 2.068 1.112 4.458 1.668 7.169 1.668zm0-6.308c-1.912 0-3.45-.609-4.614-1.825-1.164-1.217-1.746-2.833-1.746-4.849v-11.47c0-2.015.582-3.64 1.746-4.874 1.164-1.234 2.702-1.85 4.614-1.85 1.946 0 3.502.616 4.666 1.85 1.164 1.234 1.747 2.859 1.747 4.875v11.47c0 2.015-.591 3.631-1.773 4.848s-2.728 1.825-4.64 1.825zm33.262 5.735c.382 0 .608-.192.678-.574l4.953-22.522c.034-.14.087-.209.156-.209.07 0 .122.07.157.209l5.317 22.574c.105.348.33.522.678.522h6.204c.382 0 .626-.174.73-.522l8.55-35.295c.104-.452-.087-.678-.573-.678h-6.152c-.348 0-.574.191-.678.573l-4.796 21.167c-.035.14-.087.2-.157.183-.07-.018-.121-.078-.156-.183l-5.214-21.219c-.104-.347-.347-.521-.73-.521h-6.308c-.348 0-.573.191-.678.573l-4.796 21.167c-.035.14-.087.209-.157.209s-.121-.07-.156-.209l-4.953-21.219c-.104-.347-.33-.521-.678-.521h-6.464c-.383 0-.574.156-.574.47l.052.208 9.228 35.295c.105.348.348.522.73.522z" fill="#000" fill-opacity=".87"/><path d="M10 10h159.002L208 42.033V109H10z" fill="#00c5b0"/><path d="M172.208 0L218 38.002V218H0V0zm-3.609 10H10v198h198V42.699z" fill="#212121"/></g></g></symbol><symbol id="logopacket" viewBox="0 0 436 218"><title>logopacket</title><g fill="none" fill-rule="evenodd"><path d="M88.596 156.329c2.572 0 4.848-.496 6.83-1.486 1.98-.99 3.527-2.381 4.64-4.171 1.112-1.79 1.668-3.867 1.668-6.23v-24.4a.603.603 0 00-.183-.442.603.603 0 00-.443-.183h-6.047a.603.603 0 00-.444.183.603.603 0 00-.182.443v24.399c0 1.668-.547 3.015-1.642 4.04-1.095 1.026-2.494 1.538-4.197 1.538-1.773 0-3.172-.512-4.197-1.538s-1.538-2.372-1.538-4.04v-3.285c0-.173-.06-.321-.182-.443s-.27-.182-.444-.182h-6.1a.603.603 0 00-.443.182.603.603 0 00-.182.443v3.285c0 2.363.539 4.44 1.616 6.23 1.078 1.79 2.598 3.18 4.562 4.17 1.964.991 4.266 1.487 6.908 1.487zm32.74 0c2.677 0 5.032-.522 7.065-1.564 2.033-1.043 3.615-2.512 4.744-4.406s1.695-4.075 1.695-6.543v-23.773a.603.603 0 00-.183-.443.603.603 0 00-.443-.183h-6.1a.603.603 0 00-.443.183.603.603 0 00-.182.443v23.825c0 1.843-.565 3.328-1.695 4.458s-2.615 1.694-4.457 1.694-3.328-.564-4.458-1.694-1.694-2.615-1.694-4.458v-23.825a.603.603 0 00-.183-.443.603.603 0 00-.443-.183h-6.1a.603.603 0 00-.443.183.603.603 0 00-.182.443v23.773c0 2.468.565 4.649 1.694 6.543s2.711 3.363 4.744 4.406c2.034 1.042 4.388 1.564 7.065 1.564zm32.064 0c4.101 0 7.35-.947 9.749-2.842 2.398-1.894 3.597-4.475 3.597-7.742 0-2.19-.565-3.97-1.694-5.344s-2.398-2.406-3.806-3.102c-1.408-.695-3.345-1.494-5.813-2.398-2.224-.8-3.867-1.434-4.927-1.903-1.06-.469-1.86-.999-2.398-1.59-.539-.59-.808-1.32-.808-2.19 0-1.216.46-2.172 1.381-2.867.922-.695 2.199-1.043 3.832-1.043 2.086 0 3.728.513 4.927 1.538 1.2 1.026 1.799 2.268 1.799 3.728v.417a.6.6 0 00.182.443c.122.122.27.183.443.183h5.996a.602.602 0 00.443-.183.603.603 0 00.183-.443v-.782c0-2.224-.583-4.18-1.747-5.865-1.164-1.686-2.78-2.998-4.848-3.936-2.068-.939-4.423-1.408-7.065-1.408-2.502 0-4.71.417-6.62 1.251-1.913.834-3.407 2.034-4.485 3.598-1.077 1.564-1.616 3.388-1.616 5.474 0 2.12.548 3.901 1.643 5.344a11.884 11.884 0 004.066 3.414c1.616.835 3.589 1.651 5.917 2.45 2.086.765 3.606 1.365 4.562 1.8.956.434 1.712.938 2.268 1.511s.834 1.278.834 2.112c0 1.147-.452 2.111-1.355 2.893-.904.782-2.277 1.173-4.119 1.173-2.19 0-3.927-.478-5.213-1.433-1.286-.956-1.93-2.13-1.93-3.52v-.782a.603.603 0 00-.182-.443.603.603 0 00-.443-.182h-5.943a.603.603 0 00-.444.182.603.603 0 00-.182.443v1.147c0 2.19.565 4.11 1.694 5.761 1.13 1.651 2.737 2.92 4.823 3.806 2.085.887 4.518 1.33 7.299 1.33zm33.47-.417a.605.605 0 00.444-.183.603.603 0 00.182-.443v-29.248c0-.174.087-.26.26-.26h9.333a.602.602 0 00.443-.183.603.603 0 00.182-.443v-5.11a.603.603 0 00-.182-.442.603.603 0 00-.443-.183h-26.276a.603.603 0 00-.443.183.603.603 0 00-.183.443v5.109c0 .174.061.321.183.443a.6.6 0 00.443.183h9.071c.174 0 .261.086.261.26v29.248c0 .174.06.321.182.443s.27.183.444.183zm-81.07 41.932c4.102 0 7.351-.948 9.75-2.842s3.597-4.475 3.597-7.742c0-2.19-.565-3.97-1.694-5.344s-2.399-2.407-3.806-3.102c-1.408-.695-3.346-1.494-5.813-2.398-2.225-.8-3.867-1.434-4.927-1.903s-1.86-1-2.398-1.59c-.539-.59-.808-1.32-.808-2.19 0-1.216.46-2.172 1.381-2.867.921-.695 2.199-1.043 3.832-1.043 2.086 0 3.728.513 4.927 1.538 1.199 1.026 1.799 2.268 1.799 3.728v.417c0 .174.06.321.182.443s.27.183.443.183h5.996a.604.604 0 00.443-.183.603.603 0 00.182-.443v-.782c0-2.224-.582-4.18-1.746-5.865s-2.78-2.998-4.849-3.936c-2.068-.939-4.423-1.408-7.064-1.408-2.503 0-4.71.417-6.621 1.251-1.912.834-3.406 2.033-4.484 3.597-1.077 1.565-1.616 3.39-1.616 5.475 0 2.12.547 3.901 1.642 5.343s2.45 2.581 4.067 3.415c1.616.834 3.588 1.651 5.917 2.45 2.086.765 3.606 1.365 4.562 1.8.956.434 1.712.938 2.268 1.511.556.574.834 1.278.834 2.112 0 1.147-.452 2.111-1.356 2.893-.903.782-2.276 1.173-4.118 1.173-2.19 0-3.928-.478-5.214-1.433-1.286-.956-1.929-2.13-1.929-3.52v-.782c0-.173-.06-.321-.182-.443s-.27-.182-.443-.182H92.61c-.173 0-.321.06-.443.182s-.182.27-.182.443v1.147c0 2.19.564 4.11 1.694 5.761 1.13 1.651 2.737 2.92 4.823 3.806 2.085.886 4.518 1.33 7.298 1.33zm31.49.156c2.746 0 5.153-.547 7.22-1.642 2.069-1.095 3.676-2.65 4.823-4.666 1.147-2.016 1.72-4.328 1.72-6.934V173.6c0-2.572-.573-4.849-1.72-6.83-1.147-1.981-2.754-3.519-4.822-4.614-2.068-1.095-4.475-1.642-7.221-1.642-2.711 0-5.1.547-7.169 1.642-2.068 1.095-3.675 2.633-4.822 4.614-1.147 1.981-1.72 4.258-1.72 6.83v11.157c0 2.606.573 4.91 1.72 6.908 1.147 1.998 2.754 3.553 4.822 4.666 2.068 1.112 4.458 1.668 7.169 1.668zm0-6.308c-1.912 0-3.45-.609-4.614-1.825-1.164-1.217-1.746-2.833-1.746-4.849v-11.47c0-2.015.582-3.64 1.746-4.874 1.164-1.234 2.702-1.85 4.614-1.85 1.946 0 3.502.616 4.666 1.85 1.164 1.234 1.747 2.859 1.747 4.875v11.47c0 2.015-.591 3.631-1.773 4.848s-2.728 1.825-4.64 1.825zm33.262 5.735c.382 0 .608-.192.678-.574l4.953-22.522c.034-.14.087-.209.156-.209.07 0 .122.07.157.209l5.317 22.574c.105.348.33.522.678.522h6.204c.382 0 .626-.174.73-.522l8.55-35.295c.104-.452-.087-.678-.573-.678h-6.152c-.348 0-.574.191-.678.573l-4.796 21.167c-.035.14-.087.2-.157.183-.07-.018-.121-.078-.156-.183l-5.214-21.219c-.104-.347-.347-.521-.73-.521h-6.308c-.348 0-.573.191-.678.573l-4.796 21.167c-.035.14-.087.209-.157.209s-.121-.07-.156-.209l-4.953-21.219c-.104-.347-.33-.521-.678-.521h-6.464c-.383 0-.574.156-.574.47l.052.208 9.228 35.295c.105.348.348.522.73.522z" fill="#000" fill-opacity=".87" fill-rule="nonzero"/><path d="M10 10h159.002L208 42.033V109H10z" fill="#00c5b0"/><path d="M172.208 0L218 38.002V218H0V0zm-3.609 10H10v198h198V42.699z" fill="#212121" fill-rule="nonzero"/><path d="M228 109.364h208v99.773H228z" fill="#00c5b0"/><path d="M284.472 25.212c-3.042 10.188-13.853 30.67-23.793 33.95-3.983.681-13.118-3.28-13.118-11.898s14.126-23.63 31.376-28.15c2.502-.481 6.014 1.668 5.535 6.098zm-4.322-5.126c-4.885.834-29.24 12.234-30.857 29.219 16.01-25.95 33.815-29.219 30.857-29.219zm100.712 13.582c-3.042 10.187-13.853 30.67-23.793 33.949-3.983.681-13.118-3.28-13.118-11.898s14.127-23.63 31.376-28.15c2.503-.48 6.015 1.668 5.535 6.099zm-4.322-5.126c-4.884.834-29.24 12.234-30.857 29.218 16.01-25.95 33.815-29.218 30.857-29.218zm49.98 33.874c-3.042 10.187-13.852 30.67-23.792 33.949-3.983.681-13.119-3.28-13.119-11.898s14.127-23.63 31.377-28.15c2.502-.48 6.014 1.668 5.535 6.099zm-4.322-5.126c-4.884.834-29.239 12.234-30.856 29.218 16.009-25.95 33.815-29.218 30.856-29.218zM407.92 163.88c-3.043 10.186-13.854 30.669-23.794 33.948-3.983.682-13.118-3.28-13.118-11.898s14.126-23.63 31.376-28.15c2.502-.48 6.015 1.668 5.535 6.1zm-4.323-5.127c-4.884.834-29.24 12.234-30.857 29.218 16.01-25.95 33.815-29.218 30.857-29.218zm-34.572-33.768c-3.042 10.187-13.853 30.67-23.793 33.949-3.983.682-13.119-3.28-13.119-11.898s14.127-23.63 31.377-28.15c2.502-.48 6.014 1.668 5.535 6.099zm-4.323-5.126c-4.884.834-29.239 12.234-30.856 29.218 16.009-25.95 33.815-29.218 30.856-29.218zm-76.848 38.947c-3.042 10.187-13.853 30.67-23.793 33.949-3.983.682-13.118-3.28-13.118-11.898s14.126-23.63 31.376-28.15c2.502-.48 6.015 1.668 5.535 6.099zm-4.322-5.126c-4.884.834-29.24 12.234-30.857 29.218 16.01-25.95 33.815-29.218 30.857-29.218zm33.07-55.752c-3.042 10.187-13.853 30.67-23.793 33.949-3.983.682-13.118-3.28-13.118-11.898s14.126-23.63 31.376-28.15c2.502-.48 6.014 1.668 5.535 6.099zm-4.322-5.126c-4.884.834-29.24 12.234-30.857 29.218 16.01-25.95 33.815-29.218 30.857-29.218z" fill="#212121"/></g></symbol><symbol id="packet" viewBox="0 0 123 123"><title>packet</title><g fill="none" fill-rule="evenodd"><path d="M0 64.672h123v59H0z" fill="#00c5b0"/><path d="M33.395 14.91c-1.8 6.024-8.192 18.136-14.07 20.075-2.356.403-7.758-1.94-7.758-7.036s8.354-13.973 18.554-16.647c1.48-.283 3.557.987 3.274 3.607zm-2.557-3.032c-2.888.493-17.29 7.234-18.247 17.278 9.467-15.345 19.997-17.278 18.247-17.278zm59.557 8.032c-1.8 6.024-8.192 18.136-14.07 20.075-2.356.403-7.758-1.94-7.758-7.036s8.354-13.973 18.554-16.647c1.48-.283 3.557.987 3.274 3.607zm-2.557-3.032c-2.888.493-17.29 7.234-18.247 17.278 9.467-15.345 19.997-17.278 18.247-17.278zm29.557 20.032c-1.8 6.024-8.192 18.136-14.07 20.075-2.356.403-7.758-1.94-7.758-7.036s8.354-13.973 18.554-16.647c1.48-.283 3.557.987 3.274 3.607zm-2.557-3.032c-2.888.493-17.29 7.234-18.247 17.278 9.467-15.345 19.997-17.278 18.247-17.278zm-8.443 63.032c-1.8 6.024-8.192 18.136-14.07 20.075-2.356.403-7.758-1.94-7.758-7.036s8.354-13.973 18.554-16.647c1.48-.283 3.557.987 3.274 3.607zm-2.557-3.032c-2.888.493-17.29 7.234-18.247 17.278 9.467-15.345 19.997-17.278 18.247-17.278zM83.395 73.91c-1.8 6.024-8.192 18.136-14.07 20.075-2.356.403-7.758-1.94-7.758-7.036s8.354-13.973 18.554-16.647c1.48-.283 3.557.987 3.274 3.607zm-2.557-3.032c-2.888.493-17.29 7.234-18.247 17.278 9.467-15.345 19.997-17.278 18.247-17.278zM35.395 93.91c-1.8 6.024-8.192 18.136-14.07 20.075-2.356.403-7.758-1.94-7.758-7.036s8.354-13.973 18.554-16.647c1.48-.283 3.557.987 3.274 3.607zm-2.557-3.032c-2.888.493-17.29 7.234-18.247 17.278 9.467-15.345 19.997-17.278 18.247-17.278zM52.395 57.91c-1.8 6.024-8.192 18.136-14.07 20.075-2.356.403-7.758-1.94-7.758-7.036s8.354-13.973 18.554-16.647c1.48-.283 3.557.987 3.274 3.607zm-2.557-3.032c-2.888.493-17.29 7.234-18.247 17.278 9.467-15.345 19.997-17.278 18.247-17.278z" fill="#212121"/></g></symbol><symbol id="more" viewBox="0 0 56 56"><title>More</title><path fill="currentColor" d="M1.5 9h53.444L28.222 48z" fill-rule="evenodd"/></symbol><symbol id="coffee" viewBox="0 0 123 123"><title>coffee</title><g fill="none" fill-rule="evenodd"><path d="M107.15 51.187c.04-.788 9.89-3.567 13.13-3.518s2.348 1.997-1.424 3.008-11.746 1.299-11.706.51zM92.992 82.565c.528-.587 9.93 3.451 12.418 5.529s.568 3.03-3 1.44-9.945-6.382-9.418-6.969z" fill="#000"/><path d="M92.066 48.666C88.484 69.928 74.801 87.65 61.041 92.831c-13.76 5.18-39.907 7.416-36.524-12.658 3.382-20.075 32.446-44.12 44.494-48.657 12.048-4.536 26.638-4.112 23.055 17.15zm-37.08 7.65c-3.546 3.172-8.953 9.933-7.537 10.453s9.64-5.732 13.919-9.56 7.072-7.929 6.33-8.556c-.74-.628-9.166 4.49-12.712 7.663z" fill="#212121"/><path d="M74.033 15.311c-.751-.243-.886-10.475 0-13.593.886-3.117 2.537-1.751 2.537 2.155s-1.786 11.681-2.537 11.438zm-10.337 92.293c.789-.042 4.582 9.462 4.872 12.69s-1.74 2.545-3.14-1.102-2.52-11.545-1.732-11.588zm-49.5-11.705c.231.754-8.073 6.734-11.135 7.796s-2.89-1.073.31-3.313 10.593-5.238 10.825-4.483zm3.475-44.958c-.527.587-9.93-3.45-12.417-5.528-2.488-2.078-.569-3.03 3-1.442s9.945 6.383 9.417 6.97z" fill="#000"/></g></symbol><symbol id="fennel" viewBox="0 0 123 123"><title>fennel</title><g fill="none" fill-rule="evenodd"><path d="M107.15 51.187c.04-.788 9.89-3.567 13.13-3.518s2.348 1.997-1.424 3.008-11.746 1.299-11.706.51zM92.992 82.565c.528-.587 9.93 3.451 12.418 5.529s.568 3.03-3 1.44-9.945-6.382-9.418-6.969zM74.033 15.311c-.751-.243-.886-10.475 0-13.593.886-3.117 2.537-1.751 2.537 2.155s-1.786 11.681-2.537 11.438zm-10.337 92.293c.789-.042 4.582 9.462 4.872 12.69s-1.74 2.545-3.14-1.102-2.52-11.545-1.732-11.588zm-49.5-11.705c.231.754-8.073 6.734-11.135 7.796s-2.89-1.073.31-3.313 10.593-5.238 10.825-4.483zm3.475-44.958c-.527.587-9.93-3.45-12.417-5.528-2.488-2.078-.569-3.03 3-1.442s9.945 6.383 9.417 6.97z" fill="#000"/><path d="M94.882 37.516c-5.354 17.928-39.161 52.078-56.654 57.849-9.92 2.469-12.042 1.999-10.981-12.698s27.425-46.895 57.781-54.851c4.404-.845 14.283-3.587 9.854 9.7zm-6.712-6.78c-10.339 1.21-50.814 22.11-53.66 51.998 28.173-45.667 58.867-51.999 53.66-51.999z" fill="#212121"/></g></symbol><symbol id="mustard" viewBox="0 0 123 123"><title>mustard</title><g fill="none" fill-rule="evenodd"><path d="M107.15 51.187c.04-.788 9.89-3.567 13.13-3.518s2.348 1.997-1.424 3.008-11.746 1.299-11.706.51zM92.992 82.565c.528-.587 9.93 3.451 12.418 5.529s.568 3.03-3 1.44-9.945-6.382-9.418-6.969zM74.033 15.311c-.751-.243-.886-10.475 0-13.593.886-3.117 2.537-1.751 2.537 2.155s-1.786 11.681-2.537 11.438zm-10.337 92.293c.789-.042 4.582 9.462 4.872 12.69s-1.74 2.545-3.14-1.102-2.52-11.545-1.732-11.588zm-49.5-11.705c.231.754-8.073 6.734-11.135 7.796s-2.89-1.073.31-3.313 10.593-5.238 10.825-4.483zm3.475-44.958c-.527.587-9.93-3.45-12.417-5.528-2.488-2.078-.569-3.03 3-1.442s9.945 6.383 9.417 6.97z" fill="#000"/><path d="M66.016 37c11.683 0 22.801 7.144 21.937 21.437C86.982 81.117 75.816 85.356 60.59 87c-13.103 0-25.648-5.743-24.52-24.067C37.198 44.608 46.063 39.069 66.016 37zM81 48c-3.922 27.354-30.306 31.457-32 33 7.15 0 32-5.638 32-33zM41.093 74C42.985 48.124 66.733 41.226 75 40.242 62.782 38.112 39.336 50.122 41.093 74z" fill="#212121"/></g></symbol><symbol id="pomegranate" viewBox="0 0 123 123"><title>pomegranate</title><g fill="none" fill-rule="evenodd"><path d="M107.15 51.187c.04-.788 9.89-3.567 13.13-3.518s2.348 1.997-1.424 3.008-11.746 1.299-11.706.51zM92.992 82.565c.528-.587 9.93 3.451 12.418 5.529s.568 3.03-3 1.44-9.945-6.382-9.418-6.969z" fill="#000"/><path d="M89.959 42.396c.953 12.463-14.892 45.51-22.715 50.048-7.341 4.53-28.854-1.455-31.185-9.93C32.908 71.061 27.037 53.384 50.2 40.6c31.63-16.3 38.116-9.199 39.758 1.796zm-32.184 9.943c20.12-14.47 38.873-4.519 26.652-18.333-8.888-7.974-21.687 10.047-26.652 18.333z" fill="#212121"/><path d="M74.033 15.311c-.751-.243-.886-10.475 0-13.593.886-3.117 2.537-1.751 2.537 2.155s-1.786 11.681-2.537 11.438zm-10.337 92.293c.789-.042 4.582 9.462 4.872 12.69s-1.74 2.545-3.14-1.102-2.52-11.545-1.732-11.588zm-49.5-11.705c.231.754-8.073 6.734-11.135 7.796s-2.89-1.073.31-3.313 10.593-5.238 10.825-4.483zm3.475-44.958c-.527.587-9.93-3.45-12.417-5.528-2.488-2.078-.569-3.03 3-1.442s9.945 6.383 9.417 6.97z" fill="#000"/></g></symbol><symbol id="primary" viewBox="0 0 123 123"><title>primary</title><path d="M91.941 34.877C86.672 52.52 67.951 87.991 50.736 93.67c-6.898 1.18-22.718-5.68-22.718-20.605s24.465-40.921 54.338-48.75c4.333-.832 10.415 2.889 9.585 10.562zM84.455 26c-8.458 1.444-50.636 21.187-53.437 50.6C58.743 31.66 89.579 26 84.455 26zM14.196 95.899c.231.754-8.073 6.734-11.135 7.796s-2.89-1.073.31-3.313 10.593-5.238 10.825-4.483zm3.475-44.958c-.527.587-9.93-3.45-12.417-5.528-2.488-2.078-.569-3.03 3-1.442s9.945 6.383 9.417 6.97zm56.362-35.63c-.751-.243-.886-10.475 0-13.593.886-3.117 2.537-1.751 2.537 2.155s-1.786 11.681-2.537 11.438zm33.117 35.876c.04-.788 9.89-3.567 13.13-3.518s2.348 1.997-1.424 3.008-11.746 1.299-11.706.51zM92.992 82.565c.528-.587 9.93 3.451 12.418 5.529s.568 3.03-3 1.44-9.945-6.382-9.418-6.969zm-29.296 25.039c.789-.042 4.582 9.462 4.872 12.69s-1.74 2.545-3.14-1.102-2.52-11.545-1.732-11.588z" fill="currentColor" fill-rule="evenodd"/></symbol><symbol id="sunflower" viewBox="0 0 123 123"><title>sunflower</title><g fill="none" fill-rule="evenodd"><path d="M14.196 95.899c.231.754-8.073 6.734-11.135 7.796s-2.89-1.073.31-3.313 10.593-5.238 10.825-4.483zm3.475-44.958c-.527.587-9.93-3.45-12.417-5.528-2.488-2.078-.569-3.03 3-1.442s9.945 6.383 9.417 6.97zm56.362-35.63c-.751-.243-.886-10.475 0-13.593.886-3.117 2.537-1.751 2.537 2.155s-1.786 11.681-2.537 11.438zm33.117 35.876c.04-.788 9.89-3.567 13.13-3.518s2.348 1.997-1.424 3.008-11.746 1.299-11.706.51zM92.992 82.565c.528-.587 9.93 3.451 12.418 5.529s.568 3.03-3 1.44-9.945-6.382-9.418-6.969zm-29.296 25.039c.789-.042 4.582 9.462 4.872 12.69s-1.74 2.545-3.14-1.102-2.52-11.545-1.732-11.588z" fill="#000"/><path d="M92.471 38.322c-3.544 15.384-19.406 47.352-46.574 54.063C41.1 93.487 34.2 86.541 30.06 77.098c-1.822-17.163 38.852-51.29 54.712-53.93 8.384-.873 10.281 1.283 7.7 15.154zm-4.687-9.762c-7.73 9.505-36.026 42.909-51.309 55.61-.589.49 1.173.753 1.093 1.579 15.532-6.58 49.03-52.6 50.216-57.189z" fill="#212121"/></g></symbol><symbol id="leaf" viewBox="0 0 70 85"><title>leaf</title><g fill="#212121" fill-rule="evenodd"><path d="M8.546 24c-1.377 0-2.75.028-4.124.1-1.049.056-2.65-.164-3.537.497-.922.687-.858 2.093-.714 3.085.76 5.25 2.618 9.905 6.503 13.625 5.983 5.727 12.841 8.637 20.957 9.933 5.7.91 10.963-.354 15.16-4.457 3.066 5.76 5.392 12.133 6.559 18.566.576 3.174.752 6.31.65 9.541-.065 2.07-.178 4.136-.397 6.196-.095.895-.546 2.25-.2 3.097.407.993 1.777 1.09 2.393.242.512-.705.418-2.09.523-2.924.174-1.386.336-2.773.451-4.166.188-2.254.327-4.514.317-6.777-.024-5.083-1.14-10.187-2.668-15.012-2.931-9.258-7.686-17.485-15.081-23.94-4.547-3.97-9.752-5.578-15.656-6.44C16.006 24.628 12.27 24 8.546 24" transform="translate(0 2)"/><path d="M34.706 47C49.8 47 59.965 34.964 64.771 22.454c1.812-4.716 2.237-9.893 2.935-14.845.224-1.589.141-4.01.793-5.425.236-.514.779-.698.52-1.397-.158-.424-.466-.683-.928-.767-.95-.173-2.292.85-3.106 1.253-6.751 3.35-11.187 8.531-14.806 14.869-2.243 3.928-4.519 8.006-5.851 12.32-.814 2.634-1.288 5.408-1.566 8.142-.11 1.076-.216 2.178-.21 3.26.007 1.075.512 1.643.875 2.578-5.036 1.887-10.72 2.4-15.822.446-4.718-1.808-8.638-5.302-10.832-9.69a18.365 18.365 0 01-1.33-3.573c-.21-.804-.22-1.847-.609-2.574-.942-1.763-2.925-.584-2.734 1.056.53 4.576 3.176 9.17 6.558 12.352C22.923 44.472 28.704 47 34.706 47" transform="translate(0 2)"/></g></symbol><symbol id="coffee" viewBox="0 0 123 123"><title>coffee</title><path d="M92.066 48.666C88.484 69.928 74.801 87.65 61.041 92.831c-13.76 5.18-39.907 7.416-36.524-12.658 3.382-20.075 32.446-44.12 44.494-48.657 12.048-4.536 26.638-4.112 23.055 17.15zm-37.08 7.65c-3.546 3.172-8.953 9.933-7.537 10.453s9.64-5.732 13.919-9.56 7.072-7.929 6.33-8.556c-.74-.628-9.166 4.49-12.712 7.663z" fill="#212121" fill-rule="evenodd"/></symbol><symbol id="fennel" viewBox="0 0 123 123"><title>fennel</title><path d="M94.882 37.516c-5.354 17.928-39.161 52.078-56.654 57.849-9.92 2.469-12.042 1.999-10.981-12.698s27.425-46.895 57.781-54.851c4.404-.845 14.283-3.587 9.854 9.7zm-6.712-6.78c-10.339 1.21-50.814 22.11-53.66 51.998 28.173-45.667 58.867-51.999 53.66-51.999z" fill="#212121" fill-rule="evenodd"/></symbol><symbol id="mustard" viewBox="0 0 123 123"><title>mustard</title><path d="M66.016 37c11.683 0 22.801 7.144 21.937 21.437C86.982 81.117 75.816 85.356 60.59 87c-13.103 0-25.648-5.743-24.52-24.067C37.198 44.608 46.063 39.069 66.016 37zM81 48c-3.922 27.354-30.306 31.457-32 33 7.15 0 32-5.638 32-33zM41.093 74C42.985 48.124 66.733 41.226 75 40.242 62.782 38.112 39.336 50.122 41.093 74z" fill="#212121" fill-rule="evenodd"/></symbol><symbol id="pomegranate" viewBox="0 0 123 123"><title>pomegranate</title><path d="M89.959 42.396c.953 12.463-14.892 45.51-22.715 50.048-7.341 4.53-28.854-1.455-31.185-9.93C32.908 71.061 27.037 53.384 50.2 40.6c31.63-16.3 38.116-9.199 39.758 1.796zm-32.184 9.943c20.12-14.47 38.873-4.519 26.652-18.333-8.888-7.974-21.687 10.047-26.652 18.333z" fill="#212121" fill-rule="evenodd"/></symbol><symbol id="primary" viewBox="0 0 123 123"><title>primary</title><path d="M91.941 34.877C86.672 52.52 67.951 87.991 50.736 93.67c-6.898 1.18-22.718-5.68-22.718-20.605s24.465-40.921 54.338-48.75c4.333-.832 10.415 2.889 9.585 10.562zM84.455 26c-8.458 1.444-50.636 21.187-53.437 50.6C58.743 31.66 89.579 26 84.455 26z" fill="currentColor" fill-rule="evenodd"/></symbol><symbol id="sunflower" viewBox="0 0 123 123"><title>sunflower</title><path d="M92.471 38.322c-3.544 15.384-19.406 47.352-46.574 54.063C41.1 93.487 34.2 86.541 30.06 77.098c-1.822-17.163 38.852-51.29 54.712-53.93 8.384-.873 10.281 1.283 7.7 15.154zm-4.687-9.762c-7.73 9.505-36.026 42.909-51.309 55.61-.589.49 1.173.753 1.093 1.579 15.532-6.58 49.03-52.6 50.216-57.189z" fill="#212121" fill-rule="evenodd"/></symbol><symbol fill="none" id="student" viewBox="0 0 47 47"><title>student</title><path fill-rule="evenodd" clip-rule="evenodd" d="M40.774 19.587c.015-.3 3.752-1.354 4.982-1.335 1.23.018.891.757-.54 1.141-1.432.384-4.458.493-4.442.194zm-5.373 11.907c.2-.223 3.768 1.31 4.712 2.098.944.788.216 1.15-1.138.547-1.354-.603-3.774-2.423-3.574-2.645zM28.206 5.973c-.284-.093-.336-3.975 0-5.158.337-1.183.963-.665.963.817s-.678 4.433-.963 4.34zm-3.922 35.022c.3-.016 1.739 3.59 1.849 4.816.11 1.225-.66.965-1.192-.418-.531-1.384-.956-4.382-.657-4.398zM5.5 36.553c.088.287-3.063 2.556-4.225 2.96-1.162.402-1.097-.408.117-1.258 1.214-.85 4.02-1.988 4.108-1.702zm1.319-17.06c-.2.223-3.768-1.31-4.712-2.098-.944-.788-.216-1.15 1.138-.547 1.354.603 3.774 2.422 3.574 2.645zm18.345-5.29c4.434 0 8.653 2.711 8.325 8.135-.369 8.606-4.606 10.215-10.383 10.839-4.973 0-9.733-2.18-9.305-9.133.428-6.954 3.792-9.056 11.363-9.841zm3.41 1.23c-4.637-.808-13.534 3.75-12.867 12.81.717-9.819 9.729-12.436 12.866-12.81zm2.088 2.917c-.734 5.123-3.567 8.063-6.302 9.801-1.37.87-2.714 1.439-3.76 1.827-.372.138-.703.252-.987.35l-.323.112c-.17.06-.316.113-.43.162a1.03 1.03 0 00-.28.157l-.363.33h.49c1.39 0 4.464-.543 7.196-2.4 2.743-1.864 5.137-5.051 5.137-10.312l-.377-.027zM25.69 28.375c-1.99 1.353-4.17 1.988-5.695 2.223.223-.078.47-.165.737-.264 1.06-.393 2.431-.973 3.831-1.862 2.296-1.46 4.668-3.754 5.866-7.423-.65 3.56-2.586 5.863-4.74 7.326z" fill="currentColor"/></symbol><symbol fill="none" id="uk" viewBox="0 0 168 118"><title>uk</title><path stroke="#fff" stroke-width="8.399" d="M4.2 4.2h159.597v109.597H4.2z"/><path d="M64.469 81.446c-2.95 0-5.562-.56-7.84-1.68-2.24-1.157-3.994-2.781-5.263-4.872-1.232-2.09-1.848-4.498-1.848-7.223V42.473c0-.187.056-.336.168-.448a.696.696 0 01.504-.224h7.951c.187 0 .336.075.448.224a.53.53 0 01.224.448V67.67c0 1.754.504 3.173 1.512 4.256 1.045 1.045 2.427 1.568 4.144 1.568 1.68 0 3.024-.523 4.032-1.568 1.045-1.083 1.567-2.502 1.567-4.256V42.473c0-.187.056-.336.168-.448a.696.696 0 01.504-.224h7.952c.186 0 .336.075.448.224a.53.53 0 01.224.448V67.67c0 2.725-.616 5.133-1.848 7.223-1.232 2.091-2.987 3.715-5.264 4.872-2.24 1.12-4.834 1.68-7.783 1.68zm23.633-.448a.82.82 0 01-.504-.168.82.82 0 01-.168-.504V42.473c0-.187.056-.336.168-.448a.696.696 0 01.504-.224h7.951c.187 0 .336.075.448.224a.53.53 0 01.224.448v14.559c0 .112.037.186.112.224.075 0 .15-.038.224-.112l11.311-14.951c.224-.261.486-.392.784-.392h9.072c.373 0 .559.13.559.392 0 .112-.056.261-.167.448l-12.096 16.183c-.074.149-.093.28-.056.392l12.655 20.998c.075.224.112.355.112.392 0 .261-.186.392-.559.392h-8.904c-.41 0-.69-.15-.84-.448l-8.791-14.95c-.112-.225-.243-.225-.392 0l-2.912 3.975c-.075.15-.112.261-.112.336v10.415a.697.697 0 01-.224.504.605.605 0 01-.448.168h-7.951z" fill="#fff"/></symbol></svg>